<?xml version="1.0" encoding="UTF-8"?>
<!DOCTYPE svg PUBLIC "-//W3C//DTD SVG 1.1//EN" "http://www.w3.org/Graphics/SVG/1.1/DTD/svg11.dtd">
<!-- Creator: CorelDRAW -->
<svg xmlns="http://www.w3.org/2000/svg" xml:space="preserve" width="800px" height="337px" style="shape-rendering:geometricPrecision; text-rendering:geometricPrecision; image-rendering:optimizeQuality; fill-rule:evenodd; clip-rule:evenodd" viewBox="0 0 800 336.612" xmlns:xlink="http://www.w3.org/1999/xlink">
 <defs>
  <style type="text/css">
   <![CDATA[
    .str1 {stroke:black;stroke-width:3.08459}
    .str0 {stroke:black;stroke-width:3.08459;stroke-linecap:round;stroke-linejoin:round}
    .fil1 {fill:none}
    .fil3 {fill:#1F1A17}
    .fil0 {fill:#FAF9EB}
    .fil2 {fill:#1F1A17;fill-rule:nonzero}
    .fnt0 {font-weight:normal;font-size:32.4516;font-family:'Verdana'}
   ]]>
  </style>
 </defs>
 <g id="bitmap">
  <metadata id="CorelCorpID_0Corel-Layer"/>
  <path class="fil0 str0" d="M787.078 106.661c-115.948,3.23016 -313.904,-33.9266 -456.077,-34.7484 -96.1351,-7.37311 -187.527,-0.380328 -265.805,46.3309 -19.1222,9.00852 -31.8706,18.0175 -38.2452,27.0269 -40.0783,35.6332 -33.2258,60.5679 5.73683,78.184 140.577,68.4826 264.834,98.5228 382.454,112.932 140.235,2.25224 226.605,-12.2264 234.253,-51.1576 30.7567,12.3926 63.2647,-8.84328 96.5701,-45.3661 6.6929,-9.00896 9.56109,-20.5915 8.60503,-34.7484 1.91038,-19.4671 8.60328,-34.9123 25.8155,-41.5051 22.6295,-15.1226 24.8599,-34.1054 6.6929,-56.9486z"/>
  </g></svg>